/* XPM */

static const char *
clear_button_data[] = {
  /* width height num_colors chars_per_pixel x_hot y_hot */
  "25 24 21 1 0 0",

  /* colors */
  ". s symbol1 c #f7f7f7 m white",
  "# s symbol2 c #e6e6e6 m white",
  "a s symbol3 c #c8c8c8 m white",
  "b s symbol4 c #b2b2b2 m white",
  "c s symbol5 c #acacac m white",
  "d s symbol6 c #f0f0f0 m white",
  "e s symbol7 c #c2c2c2 m white",
  "f s symbol8 c #eaeaea m white",
  "g s symbol9 c #b5b5b5 m white",
  "h s symbol10 c #f1f1f1 m white",
  "i s symbol11 c #c6c6c6 m white",
  "j s symbol12 c #afafaf m white",
  "k s symbol13 c #b6b6b6 m white",
  "l s symbol14 c #e8e8e8 m white",
  "m s symbol15 c #e3e3e3 m white",
  "n s symbol16 c #efefef m white",
  "o s symbol17 c #b7b7b7 m white",
  "p s symbol18 c #cdcdcd m white",
  "q s symbol19 c #b1b1b1 m white",
  "r s symbol20 c #adadad m white",
  "  s mask c none",

  /* pixels */
  "                         ",
  "                         ",
  "                         ",
  "        #abcccba#        ",
  "      deccccccccced      ",
  "     fgcccccccccccgf     ",
  "    hgcccccccccccccgh    ",
  "    icccjkccccckjccci    ",
  "   lcccjmnoccconmjcccl   ",
  "   pcccql.nocon.lqcccp   ",
  "   occccql.ncn.lqcccco   ",
  "   rcccccql...lqcccccr   ",
  "   cccccccc...cccccccc   ",
  "   rcccccql...lqcccccr   ",
  "   occccql.ncn.lqcccco   ",
  "   pcccql.nocon.lqcccp   ",
  "   lcccjmnoccconmjcccl   ",
  "    icccjkccccckjccci    ",
  "    hgcccccccccccccgh    ",
  "     fgcccccccccccgf     ",
  "      deccccccccced      ",
  "        #abcccba#        ",
  "                         ",
  "                         ",
};
